<?xml version="1.0" encoding="UTF-8" standalone="no"?>
<svg
   xmlns:dc="http://purl.org/dc/elements/1.1/"
   xmlns:cc="http://creativecommons.org/ns#"
   xmlns:rdf="http://www.w3.org/1999/02/22-rdf-syntax-ns#"
   xmlns:svg="http://www.w3.org/2000/svg"
   xmlns="http://www.w3.org/2000/svg"
   id="svg283"
   version="1.1"
   viewBox="0 0 105.83333 37.041668"
   height="140"
   width="400">
  <defs
     id="defs277" />
  <metadata
     id="metadata280">
    <rdf:RDF>
      <cc:Work
         rdf:about="">
        <dc:format>image/svg+xml</dc:format>
        <dc:type
           rdf:resource="http://purl.org/dc/dcmitype/StillImage" />
        <dc:title></dc:title>
      </cc:Work>
    </rdf:RDF>
  </metadata>
  <g
     transform="translate(0,-259.95832)"
     id="layer1">
    <g
       transform="matrix(0.20453894,0,0,0.20453894,-34.662457,292.59449)"
       id="g1022-1-8-0-62">
      <path
         id="path1026-8-9-3-9"
         d="m 589.24264,-63.542484 c 11.3522,-1.103738 20.20439,-4.950858 26.97875,-11.724859 4.40277,-4.402528 6.91583,-8.224236 8.64708,-13.149961 2.31292,-6.58068 3.39721,-16.338526 1.97367,-17.762046 -0.74787,-0.74785 -29.08262,-0.92365 -30.24268,-0.18765 -0.50209,0.31854 -0.64724,1.80395 -0.53442,5.46963 l 0.15482,5.032327 7.34828,0.148686 7.34828,0.148687 -4.3e-4,1.454574 c -2.2e-4,0.800016 -0.72104,2.977811 -1.60177,4.839544 -2.10118,4.441545 -6.33101,8.548613 -11.34536,11.016106 -19.01591,9.357517 -41.32587,-1.211055 -45.63023,-21.615749 -1.14892,-5.446445 -0.7594,-15.468415 0.78931,-20.307965 3.08886,-9.65241 10.15468,-17.00861 19.31021,-20.10382 4.44795,-1.50371 14.48673,-1.40799 19.55578,0.18648 6.9403,2.18307 14.54184,8.15055 18.08596,14.19815 l 1.49365,2.5487 5.41646,-0.15162 5.41645,-0.15163 v -13.89492 -13.89493 h -5.3442 -5.3442 l -0.15611,4.14176 c -0.0858,2.27797 -0.3859,4.14176 -0.66674,4.14176 -0.28089,0 -1.6536,-0.81387 -3.05047,-1.8086 -8.75071,-6.23154 -20.3662,-9.08098 -31.93881,-7.83499 -7.25903,0.78155 -10.80072,1.73942 -16.29385,4.40674 -3.79878,1.8446 -5.38806,3.05863 -9.70623,7.41454 -4.33825,4.37616 -5.55912,6.00661 -7.63762,10.19987 -3.19867,6.45316 -4.50348,11.54212 -4.91891,19.18451 -0.70505,12.970373 2.60466,23.928014 10.05309,33.283312 7.12018,8.943026 16.97998,13.726558 30.37996,14.73899 3.08627,0.233184 5.73166,0.452568 5.87862,0.487525 0.14697,0.03495 2.65872,-0.168962 5.58166,-0.453151 z m -324.36336,-6.403178 v -5.076992 l -3.20652,-0.128993 c -1.76359,-0.07094 -4.23244,-0.266622 -5.48634,-0.434836 l -2.27981,-0.305849 0.14213,-14.52893 0.14213,-14.528928 h 6.0647 6.0647 l 9.60433,19.765022 c 5.28238,10.870765 9.88818,19.948759 10.23512,20.173328 0.34693,0.224568 4.59886,0.34865 9.44872,0.275739 l 8.81794,-0.132568 0.15565,-4.761017 c 0.0856,-2.618563 -0.0462,-4.962898 -0.29298,-5.20964 -0.24674,-0.246742 -2.56224,-0.542138 -5.14556,-0.656434 -2.58331,-0.114291 -4.89708,-0.415335 -5.1417,-0.668982 -0.50898,-0.527756 -14.25354,-28.974278 -14.51879,-30.048918 -0.19539,-0.7916 -0.16012,-0.81392 5.52875,-3.4988 4.91716,-2.32068 8.35864,-5.84061 10.13005,-10.36095 1.70204,-4.34334 1.71814,-13.46867 0.0313,-17.76762 -1.45575,-3.71009 -5.56183,-8.37404 -9.0381,-10.26607 -5.69201,-3.09798 -7.76721,-3.30343 -33.54743,-3.32133 l -23.51449,-0.0163 v 5.077 5.07699 l 5.61141,0.26721 5.61141,0.26721 0.13773,32.42305 0.13773,32.423051 -3.34425,0.315345 c -1.83934,0.173436 -4.42645,0.373143 -5.74914,0.443794 l -2.40489,0.128448 -0.15666,4.497899 c -0.0862,2.473848 -0.0323,4.821866 0.11961,5.217818 0.22548,0.587611 3.54464,0.694041 18.05973,0.579092 l 17.7835,-0.140846 z M 254.27994,-116.7965 c -0.19595,-0.19595 -0.35628,-5.60238 -0.35628,-12.01427 v -11.658 l 1.42117,-0.35669 c 2.05299,-0.51527 17.69896,0.1937 20.22109,0.91628 1.22908,0.35213 3.07345,1.55012 4.34414,2.8217 2.84712,2.8491 3.81553,6.72666 2.85424,11.42851 -0.52686,2.57694 -1.04061,3.47336 -3.18304,5.55397 -1.97538,1.91837 -3.18067,2.61527 -5.31456,3.07291 -2.95907,0.63461 -19.39401,0.82833 -19.98676,0.23559 z m 125.4997,38.834535 v -13.093296 h -5.07699 -5.077 l -0.26721,7.481883 -0.26721,7.481884 -2.40489,0.361204 c -3.42935,0.515069 -32.73145,0.509997 -33.54409,-0.0058 -0.52439,-0.332852 -0.64501,-3.557421 -0.53442,-14.287559 l 0.14282,-13.857671 15.7654,-0.26721 15.7654,-0.26721 v -5.07699 -5.07699 l -15.7654,-0.26721 -15.7654,-0.26721 -0.14368,-12.5211 c -0.11087,-9.66052 0.0112,-12.61944 0.53442,-12.95151 0.8694,-0.55182 34.66552,-0.56733 35.53273,-0.0163 0.4469,0.28394 0.69885,2.67493 0.80164,7.6073 l 0.14989,7.1932 h 5.077 5.07699 v -12.82608 -12.82609 h -35.80616 -35.80616 v 5.07699 5.077 l 4.27536,0.13459 c 2.35145,0.074 4.81647,0.25897 5.47781,0.411 l 1.20245,0.2764 v 32.28623 c 0,31.891986 -0.0132,32.290397 -1.07636,32.627845 -0.59199,0.187892 -2.33554,0.30384 -3.87454,0.257666 -1.53901,-0.04617 -3.57979,-0.06346 -4.53506,-0.03837 l -1.73687,0.04553 v 4.987921 c 0,2.74336 0.16202,5.14994 0.36004,5.347964 0.19802,0.198019 16.37091,0.298223 35.93976,0.222672 l 35.57973,-0.137362 z m 69.95188,12.515165 c 0.49293,-1.284564 0.37141,-38.33464 -0.12832,-39.12226 -0.32088,-0.50574 -1.90963,-0.64715 -6.00405,-0.53442 l -5.5677,0.15329 -0.14236,14.312301 -0.14237,14.312303 -1.36208,0.517858 c -1.46925,0.558614 -23.09935,0.729452 -24.49607,0.193476 -0.75793,-0.290842 -0.84534,-3.660928 -0.84534,-32.589458 v -32.26506 l 1.20244,-0.27577 c 0.66135,-0.15168 3.00612,-0.33662 5.2106,-0.411 l 4.00815,-0.13522 v -5.077 -5.07699 l -17.33246,-0.14113 c -13.51065,-0.11002 -17.42702,0.008 -17.76129,0.53442 -0.5014,0.78987 -0.59553,7.94545 -0.12081,9.18257 0.26374,0.68729 1.25701,0.84534 5.31266,0.84534 2.76461,0 5.13621,0.23935 5.32012,0.53693 0.18251,0.29531 0.32142,14.88807 0.30869,32.42835 -0.0172,23.658743 -0.18375,31.990664 -0.64524,32.275884 -0.34215,0.211454 -2.66534,0.389593 -5.16265,0.395861 -3.1853,0.008 -4.67503,0.223511 -4.99108,0.722056 -0.70266,1.108387 -0.5624,8.684884 0.17442,9.421706 0.4841,0.484099 8.26487,0.641304 31.74083,0.641304 27.8657,0 31.13326,-0.0879 31.42391,-0.845341 z m 76.72769,-0.188367 c 0.66041,-1.233998 0.75099,-24.01374 0.0996,-25.040511 -0.31853,-0.502072 -1.80394,-0.647205 -5.46962,-0.534421 l -5.03234,0.154838 -0.14941,7.460116 c -0.10307,5.146291 -0.35171,7.588645 -0.80163,7.874512 -0.86703,0.550891 -34.66326,0.536178 -35.53236,-0.01544 -0.52439,-0.332853 -0.64501,-3.557422 -0.53442,-14.28756 l 0.14282,-13.857707 15.91826,-0.14159 15.91826,-0.14158 -0.15286,-5.20262 -0.15286,-5.20261 -15.7654,-0.26721 -15.7654,-0.26721 v -12.82609 -12.82608 l 17.10145,-0.1494 c 9.4058,-0.0822 17.63579,-0.0192 18.28886,0.14001 1.14589,0.27929 1.1926,0.5461 1.33605,7.63128 l 0.14864,7.34186 h 5.07175 5.07174 l 0.34283,-1.60326 c 0.50329,-2.35361 0.52618,-22.86468 0.0264,-23.65191 -0.337,-0.53084 -7.9347,-0.643 -36.19878,-0.53442 l -35.77227,0.13742 v 5.07699 5.077 l 5.3442,0.26721 5.34421,0.26721 0.13774,32.45481 0.13774,32.454811 -1.20658,0.277438 c -0.66362,0.152593 -3.1305,0.338011 -5.48195,0.412038 l -4.27536,0.134594 -0.15665,4.4979 c -0.0862,2.473847 -0.0336,4.818616 0.11683,5.210597 0.22414,0.584095 6.68589,0.712698 35.8104,0.712698 34.58736,0 35.5517,-0.02763 36.09015,-1.033708 z"
         style="fill:#f58f20;fill-opacity:1;stroke-width:0.53442025" />
    </g>
    <text
       transform="scale(0.98797223,1.0121742)"
       id="text900-7-7-6-1"
       y="284.63135"
       x="53.49332"
       style="font-style:normal;font-weight:normal;font-size:9.35003376px;line-height:5.84377146px;font-family:Sans;letter-spacing:0px;word-spacing:0px;fill:#ff7f2a;fill-opacity:1;stroke:none;stroke-width:0.23375085px;stroke-linecap:butt;stroke-linejoin:miter;stroke-opacity:1"
       xml:space="preserve"><tspan
         style="font-style:normal;font-variant:normal;font-weight:bold;font-stretch:normal;font-size:8.72669888px;font-family:'Noto Sans';-inkscape-font-specification:'Noto Sans Bold';text-align:center;text-anchor:middle;fill:#ff7f2a;stroke-width:0.23375085px"
         y="284.63135"
         x="53.49332"
         id="tspan898-9-3-1-2"><tspan
           id="tspan1047-2-6-0-7"
           style="font-size:8.72669888px;text-align:center;text-anchor:middle;fill:#808080;stroke-width:0.23375085px"><tspan
             id="tspan7970-6-0"
             style="fill:#02664f;fill-opacity:1;stroke-width:0.23375085px">Revista </tspan></tspan><tspan
           id="tspan1142-0-1-3-9"
           style="font-size:8.72669888px;text-align:center;text-anchor:middle;fill:#9bc43f;fill-opacity:1;stroke-width:0.23375085px">latinoamericana</tspan></tspan><tspan
         id="tspan902-2-2-2-3"
         style="font-style:normal;font-variant:normal;font-weight:bold;font-stretch:normal;font-size:6.85669184px;font-family:'Noto Sans';-inkscape-font-specification:'Noto Sans Bold';text-align:center;text-anchor:middle;fill:#808080;stroke-width:0.23375085px"
         y="290.47513"
         x="53.49332"><tspan
           id="tspan7972-0-6"
           style="fill:#02664f;fill-opacity:1;stroke-width:0.23375085px">de estudiantes de </tspan><tspan
           id="tspan6362-3-9-6-0"
           style="text-align:center;text-anchor:middle;fill:#9bc43f;fill-opacity:1;stroke-width:0.23375085px">geografía</tspan></tspan></text>
  </g>
</svg>
