<?xml version="1.0" encoding="UTF-8" standalone="no"?>
<svg
   xmlns:dc="http://purl.org/dc/elements/1.1/"
   xmlns:cc="http://creativecommons.org/ns#"
   xmlns:rdf="http://www.w3.org/1999/02/22-rdf-syntax-ns#"
   xmlns:svg="http://www.w3.org/2000/svg"
   xmlns="http://www.w3.org/2000/svg"
   xmlns:sodipodi="http://sodipodi.sourceforge.net/DTD/sodipodi-0.dtd"
   xmlns:inkscape="http://www.inkscape.org/namespaces/inkscape"
   width="85"
   height="15"
   id="svg2279"
   version="1.0"
   sodipodi:docname="open-access.svg"
   inkscape:version="0.92.2 (5c3e80d, 2017-08-06)">
  <sodipodi:namedview
     pagecolor="#ffffff"
     bordercolor="#666666"
     borderopacity="1"
     objecttolerance="10"
     gridtolerance="10"
     guidetolerance="10"
     inkscape:pageopacity="0"
     inkscape:pageshadow="2"
     inkscape:window-width="1366"
     inkscape:window-height="709"
     id="namedview31"
     showgrid="false"
     inkscape:zoom="13.457126"
     inkscape:cx="13.448192"
     inkscape:cy="8.7486086"
     inkscape:window-x="0"
     inkscape:window-y="0"
     inkscape:window-maximized="1"
     inkscape:current-layer="svg2279" />
  <defs
     id="defs2281">
    <clipPath
       clipPathUnits="userSpaceOnUse"
       id="clipPath3442">
      <rect
         style="fill:#000000;fill-opacity:1;stroke:none;stroke-width:0.98393101;stroke-miterlimit:4;stroke-dasharray:none;stroke-opacity:1"
         id="rect3444"
         width="21.988329"
         height="13.315949"
         x="183.46487"
         y="255.06166" />
    </clipPath>
    <clipPath
       clipPathUnits="userSpaceOnUse"
       id="clipPath2418">
      <path
         d="M 0,288 H 720 V 0 H 0 Z"
         id="path2420"
         inkscape:connector-curvature="0" />
    </clipPath>
  </defs>
  <metadata
     id="metadata2284">
    <rdf:RDF>
      <cc:Work
         rdf:about="">
        <dc:format>image/svg+xml</dc:format>
        <dc:type
           rdf:resource="http://purl.org/dc/dcmitype/StillImage" />
        <dc:title></dc:title>
      </cc:Work>
    </rdf:RDF>
  </metadata>
  <g
     id="layer1"
     transform="matrix(0.99653642,0,0,0.94305061,-0.01230202,-0.07797223)">
    <g
       id="BY-SA"
       transform="matrix(0.9875019,0,0,0.9333518,-345.49402,-380.59934)">
      <g
         id="g3747"
         transform="translate(168.53333,154.66667)">
        <rect
           style="fill:#ffffff;fill-opacity:1;stroke:#f68212;stroke-width:1.04161763;stroke-miterlimit:4;stroke-dasharray:none;stroke-opacity:1"
           id="rect3749"
           width="85.333336"
           height="16"
           x="181.86667"
           y="253.71967" />
        <g
           id="g3755"
           transform="matrix(0.9612533,0,0,0.9612533,7.289767,10.140799)"
           clip-path="url(#clipPath3442)" />
      </g>
    </g>
  </g>
  <text
     id="text1032"
     y="37.279148"
     x="85.7537"
     style="font-style:normal;font-variant:normal;font-weight:normal;font-stretch:normal;font-size:26.66666603px;line-height:25px;font-family:sans-serif;-inkscape-font-specification:sans-serif;letter-spacing:0px;word-spacing:0px;fill:#000000;fill-opacity:1;stroke:none;stroke-width:1px;stroke-linecap:butt;stroke-linejoin:miter;stroke-opacity:1"
     xml:space="preserve"><tspan
       y="56.70623"
       x="85.7537"
       id="tspan1030" /></text>
  <rect
     style="fill:#f68212;fill-opacity:1;stroke:none;stroke-width:1.78487265;stroke-miterlimit:4;stroke-dasharray:none;stroke-dashoffset:0;stroke-opacity:1"
     id="rect67"
     width="62.73106"
     height="11.266625"
     x="20.078522"
     y="1.8787234"
     ry="0" />
  <path
     inkscape:connector-curvature="0"
     style="fill:#ffffff;fill-opacity:1;stroke:none;stroke-width:0.91142404;stroke-miterlimit:4;stroke-dasharray:none;stroke-opacity:0.46913578"
     d="M 2.0593476,1.8787235 V 13.145345 H 20.050868 c 1.157853,-1.643347 1.939211,-3.5531912 1.939211,-5.6333106 0,-2.0662471 -0.767916,-3.9969789 -1.911558,-5.6333109 z"
     id="path3753-6" />
  <g
     transform="matrix(0.94761428,0,0,0.89675417,-0.34107432,1.5267494)"
     id="g1068">
    <path
       id="path2424-3"
       style="fill:#f68212;fill-opacity:1;fill-rule:nonzero;stroke:none;stroke-width:0.04341277"
       d="m 10.273196,4.2280596 v 0.384029 h 1.126083 v -0.384029 c 0,-0.929554 0.756294,-1.685761 1.685718,-1.685761 0.929424,0 1.685675,0.756207 1.685675,1.685761 v 2.777766 h 1.126084 v -2.777766 c 0,-1.550401 -1.261402,-2.811802 -2.811759,-2.811802 -1.550313,0 -2.811801,1.261401 -2.811801,2.811802"
       inkscape:connector-curvature="0" />
    <path
       id="path2426-5"
       style="fill:#f68212;fill-opacity:1;fill-rule:nonzero;stroke:none;stroke-width:0.04341277"
       d="m 14.018415,8.6269886 c 0,0.512966 -0.415894,0.92886 -0.928989,0.92886 -0.513052,0 -0.928991,-0.415894 -0.928991,-0.92886 0,-0.513269 0.415939,-0.929207 0.928991,-0.929207 0.513095,0 0.928989,0.415938 0.928989,0.929207"
       inkscape:connector-curvature="0" />
    <path
       id="path2428-6"
       style="fill:#f68212;fill-opacity:1;fill-rule:nonzero;stroke:none;stroke-width:0.04341277"
       d="m 10.889006,8.6169606 c 0,-1.207352 0.982301,-2.189567 2.18961,-2.189567 1.207265,0 2.189436,0.982215 2.189436,2.189567 0,1.207222 -0.982171,2.1896104 -2.189436,2.1896104 -1.207309,0 -2.18961,-0.9823884 -2.18961,-2.1896104 m -1.1260406,0 c 0,1.8280254 1.4875386,3.3155634 3.3156506,3.3155634 1.828155,0 3.315563,-1.487538 3.315563,-3.3155634 0,-1.828286 -1.487408,-3.315651 -3.315563,-3.315651 -1.828112,0 -3.3156506,1.487365 -3.3156506,3.315651"
       inkscape:connector-curvature="0" />
  </g>
  <g
     id="g887"
     style="fill:#ffffff"
     transform="matrix(0.99653642,0,0,0.94305061,-0.21160929,-0.07797223)">
    <path
       id="path2430-2"
       style="fill:#ffffff;fill-opacity:1;fill-rule:nonzero;stroke:none;stroke-width:0.11366656"
       d="m 27.341777,9.9906433 c 0.903423,0 1.420719,-0.8507944 1.420719,-2.0081475 0,-1.061532 -0.499678,-1.9741609 -1.420719,-1.9741609 -0.92104,0 -1.438677,0.8945559 -1.438677,2.0000769 0,1.1142734 0.535142,1.9822315 1.430038,1.9822315 z m -0.06138,1.0617587 C 25.534934,11.052402 24.5,9.727846 24.5,8.0438758 c 0,-1.7725165 1.140076,-3.0962773 2.8769,-3.0962773 1.815483,0 2.806541,1.3589975 2.806541,2.9905674 0,1.9476765 -1.166673,3.1142361 -2.894518,3.1142361 z"
       inkscape:connector-curvature="0" />
    <path
       id="path2432-9"
       style="fill:#ffffff;fill-opacity:1;fill-rule:nonzero;stroke:none;stroke-width:0.11366656"
       d="m 32.196557,7.8283074 c 0.11378,0.026939 0.254271,0.035237 0.446823,0.035237 0.710871,0 1.149168,-0.359641 1.149168,-0.9558222 0,-0.5438945 -0.368392,-0.8682988 -1.043571,-0.8682988 -0.271892,0 -0.456144,0.01739 -0.55242,0.043421 z M 30.872,5.144867 c 0.412041,-0.070246 0.991173,-0.1226462 1.806958,-0.1226462 0.824082,0 1.420718,0.1572008 1.815369,0.4822873 0.377372,0.2890541 0.622892,0.7806619 0.622892,1.3595658 0,0.5874289 -0.184253,1.0786957 -0.535142,1.4032138 -0.456257,0.4209072 -1.140189,0.6226655 -1.929717,0.6226655 -0.175275,0 -0.33327,-0.00864 -0.455803,-0.035464 V 10.977779 H 30.872 Z"
       inkscape:connector-curvature="0" />
    <path
       id="path2434-1"
       style="fill:#ffffff;fill-opacity:1;fill-rule:nonzero;stroke:none;stroke-width:0.11366656"
       d="m 39.796433,8.4560878 h -2.175465 v 1.402986 h 2.429737 V 10.956069 H 36.288 V 5.0439311 h 3.639945 v 1.0965415 h -2.306977 v 1.2279399 h 2.175465 z"
       inkscape:connector-curvature="0" />
    <path
       id="path2436-2"
       style="fill:#ffffff;fill-opacity:1;fill-rule:nonzero;stroke:none;stroke-width:0.11366656"
       d="M 41.621,10.956069 V 5.0439311 h 1.561097 l 1.227713,2.1663712 c 0.351343,0.6232337 0.693024,1.3595658 0.964916,2.0263338 h 0.01784 C 45.313687,8.4560878 45.286974,7.6580349 45.286974,6.7630244 V 5.0439311 h 1.228167 V 10.956069 H 45.111814 L 43.848751,8.6754643 C 43.497749,8.0348395 43.103099,7.2807755 42.822456,6.5878642 h -0.03513 c 0.04364,0.7893006 0.06138,1.6223629 0.06138,2.5872783 v 1.7809265 z"
       inkscape:connector-curvature="0" />
    <path
       id="path2438-7"
       style="fill:#ffffff;fill-opacity:1;fill-rule:nonzero;stroke:none;stroke-width:0.11366656"
       d="M 53.187035,8.43881 52.818869,7.1841584 C 52.722369,6.833497 52.61677,6.3863327 52.529134,6.0438554 h -0.02568 c -0.07934,0.3506613 -0.175955,0.7978256 -0.263707,1.140303 L 51.880557,8.43881 Z M 51.687091,9.4380528 51.275278,10.956069 H 49.889 l 1.806844,-5.9121385 h 1.746032 l 1.841285,5.9121385 H 53.844824 L 53.388567,9.4380528 Z"
       inkscape:connector-curvature="0" />
    <path
       id="path2440-0"
       style="fill:#ffffff;fill-opacity:1;fill-rule:nonzero;stroke:none;stroke-width:0.11366656"
       d="m 60.324859,10.797845 c -0.236767,0.114009 -0.797939,0.254841 -1.508583,0.254841 -2.043611,0 -3.096276,-1.2811358 -3.096276,-2.9734036 0,-2.0181499 1.43879,-3.1319686 3.227789,-3.1319686 0.693366,0 1.219301,0.1407192 1.456182,0.2635927 L 60.123556,6.2634589 C 59.859963,6.1496787 59.483499,6.0438552 59.00053,6.0438552 c -1.052666,0 -1.877316,0.6405111 -1.877316,1.9648402 0,1.1837237 0.701891,1.9298309 1.886296,1.9298309 0.411587,0 0.850453,-0.07945 1.122457,-0.1932331 z"
       inkscape:connector-curvature="0" />
    <path
       id="path2442-9"
       style="fill:#ffffff;fill-opacity:1;fill-rule:nonzero;stroke:none;stroke-width:0.11366656"
       d="m 65.585086,10.797845 c -0.236994,0.114009 -0.797939,0.254841 -1.509036,0.254841 -2.043385,0 -3.09605,-1.2811358 -3.09605,-2.9734036 0,-2.0181499 1.438791,-3.1319686 3.228016,-3.1319686 0.693026,0 1.219075,0.1407192 1.455956,0.2635927 L 65.383329,6.2634589 C 65.120418,6.1496787 64.742704,6.0438552 64.260417,6.0438552 c -1.052439,0 -1.876976,0.6405111 -1.876976,1.9648402 0,1.1837237 0.701891,1.9298309 1.885728,1.9298309 0.41261,0 0.851249,-0.07945 1.122799,-0.1932331 z"
       inkscape:connector-curvature="0" />
    <path
       id="path2444-3"
       style="fill:#ffffff;fill-opacity:1;fill-rule:nonzero;stroke:none;stroke-width:0.11366656"
       d="m 70.645318,8.4560873 h -2.175237 v 1.402986 h 2.42985 V 10.956069 H 67.137 V 5.0439305 h 3.640399 V 6.140472 h -2.307318 v 1.2279399 h 2.175237 z"
       inkscape:connector-curvature="0" />
    <path
       id="path2446-6"
       style="fill:#ffffff;fill-opacity:1;fill-rule:nonzero;stroke:none;stroke-width:0.11366656"
       d="m 72.514004,9.5871831 c 0.350662,0.1843671 0.91206,0.3687348 1.482212,0.3687348 0.613686,0 0.938658,-0.2541589 0.938658,-0.6488092 0,-0.3595274 -0.280529,-0.5791313 -0.991286,-0.8247646 -0.982307,-0.3506614 -1.631683,-0.8945559 -1.631683,-1.7628548 0,-1.0089044 0.851021,-1.7721755 2.236843,-1.7721755 0.675407,0 1.157582,0.1318532 1.508697,0.2980337 L 75.759071,6.3158593 C 75.531282,6.2019654 75.100942,6.0351028 74.531699,6.0351028 c -0.5797,0 -0.860001,0.2717768 -0.860001,0.5700379 0,0.377373 0.324518,0.5436672 1.096427,0.8418145 1.043687,0.38658 1.526428,0.929679 1.526428,1.7719482 0,0.9917416 -0.754291,1.8337826 -2.377222,1.8337826 -0.675293,0 -1.342288,-0.184253 -1.675331,-0.368621 z"
       inkscape:connector-curvature="0" />
    <path
       id="path2448-0"
       style="fill:#ffffff;fill-opacity:1;fill-rule:nonzero;stroke:none;stroke-width:0.11366656"
       d="m 77.561776,9.5871831 c 0.35089,0.1843671 0.911948,0.3687348 1.481985,0.3687348 0.614255,0 0.938886,-0.2541589 0.938886,-0.6488092 0,-0.3595274 -0.280869,-0.5791313 -0.991627,-0.8247646 -0.981851,-0.3506614 -1.630888,-0.8945559 -1.630888,-1.7628548 0,-1.0089044 0.850112,-1.7721755 2.236163,-1.7721755 0.675634,0 1.158035,0.1318532 1.508924,0.2980337 L 80.807071,6.3158593 C 80.57917,6.2019654 80.149396,6.0351028 79.579018,6.0351028 c -0.579018,0 -0.859433,0.2717768 -0.859433,0.5700379 0,0.377373 0.324176,0.5436672 1.0962,0.8418145 1.043573,0.38658 1.526087,0.929679 1.526087,1.7719482 0,0.9917416 -0.754404,1.8337826 -2.377108,1.8337826 -0.674953,0 -1.341834,-0.184253 -1.674764,-0.368621 z"
       inkscape:connector-curvature="0" />
  </g>
</svg>
