<?xml version="1.0" encoding="UTF-8" standalone="no"?>
<!-- Generator: Adobe Illustrator 19.0.0, SVG Export Plug-In . SVG Version: 6.00 Build 0)  -->

<svg
   xmlns:dc="http://purl.org/dc/elements/1.1/"
   xmlns:cc="http://creativecommons.org/ns#"
   xmlns:rdf="http://www.w3.org/1999/02/22-rdf-syntax-ns#"
   xmlns:svg="http://www.w3.org/2000/svg"
   xmlns="http://www.w3.org/2000/svg"
   xmlns:sodipodi="http://sodipodi.sourceforge.net/DTD/sodipodi-0.dtd"
   xmlns:inkscape="http://www.inkscape.org/namespaces/inkscape"
   version="1.1"
   id="Layer_1"
   x="0px"
   y="0px"
   viewBox="0 0 25 25"
   xml:space="preserve"
   sodipodi:docname="pdf.svg"
   width="25"
   height="25"
   inkscape:version="0.92.2 (5c3e80d, 2017-08-06)"><metadata
     id="metadata45"><rdf:RDF><cc:Work
         rdf:about=""><dc:format>image/svg+xml</dc:format><dc:type
           rdf:resource="http://purl.org/dc/dcmitype/StillImage" /><dc:title></dc:title></cc:Work></rdf:RDF></metadata><defs
     id="defs43" /><sodipodi:namedview
     pagecolor="#ffffff"
     bordercolor="#666666"
     borderopacity="1"
     objecttolerance="10"
     gridtolerance="10"
     guidetolerance="10"
     inkscape:pageopacity="0"
     inkscape:pageshadow="2"
     inkscape:window-width="1920"
     inkscape:window-height="1057"
     id="namedview41"
     showgrid="false"
     inkscape:zoom="6.1047574"
     inkscape:cx="90.491497"
     inkscape:cy="49.048409"
     inkscape:window-x="-8"
     inkscape:window-y="-8"
     inkscape:window-maximized="1"
     inkscape:current-layer="Layer_1" /><g
     id="g8"
     transform="matrix(0.07816057,0,0,0.07816057,0.49568192,0.33610447)"><path
       style="fill:#e2574c"
       d="m 38.658,0 h 164.23 l 87.049,86.711 v 203.227 c 0,10.679 -8.659,19.329 -19.329,19.329 H 38.658 c -10.67,0 -19.329,-8.65 -19.329,-19.329 V 19.329 C 19.329,8.65 27.989,0 38.658,0 Z"
       id="path2"
       inkscape:connector-curvature="0" /><path
       style="fill:#b53629"
       d="m 289.658,86.981 h -67.372 c -10.67,0 -19.329,-8.659 -19.329,-19.329 V 0.193 Z"
       id="path4"
       inkscape:connector-curvature="0" /><path
       style="fill:#ffffff"
       d="m 217.434,146.544 c 3.238,0 4.823,-2.822 4.823,-5.557 0,-2.832 -1.653,-5.567 -4.823,-5.567 h -18.44 c -3.605,0 -5.615,2.986 -5.615,6.282 v 45.317 c 0,4.04 2.3,6.282 5.412,6.282 3.093,0 5.403,-2.242 5.403,-6.282 v -12.438 h 11.153 c 3.46,0 5.19,-2.832 5.19,-5.644 0,-2.754 -1.73,-5.49 -5.19,-5.49 h -11.153 v -16.903 c 0,0 13.24,0 13.24,0 z M 155.107,135.42 h -13.492 c -3.663,0 -6.263,2.513 -6.263,6.243 v 45.395 c 0,4.629 3.74,6.079 6.417,6.079 h 14.159 c 16.758,0 27.824,-11.027 27.824,-28.047 -0.009,-17.995 -10.427,-29.67 -28.645,-29.67 z m 0.648,46.526 h -8.225 v -35.334 h 7.413 c 11.221,0 16.101,7.529 16.101,17.918 0,9.723 -4.794,17.416 -15.289,17.416 z M 106.33,135.42 H 92.964 c -3.779,0 -5.886,2.493 -5.886,6.282 v 45.317 c 0,4.04 2.416,6.282 5.663,6.282 3.247,0 5.663,-2.242 5.663,-6.282 v -13.231 h 8.379 c 10.341,0 18.875,-7.326 18.875,-19.107 0.001,-11.529 -8.233,-19.261 -19.328,-19.261 z m -0.222,27.738 h -7.703 v -17.097 h 7.703 c 4.755,0 7.78,3.711 7.78,8.553 -0.01,4.833 -3.025,8.544 -7.78,8.544 z"
       id="path6"
       inkscape:connector-curvature="0" /></g><g
     id="g10"
     transform="translate(0,-284.26699)" /><g
     id="g12"
     transform="translate(0,-284.26699)" /><g
     id="g14"
     transform="translate(0,-284.26699)" /><g
     id="g16"
     transform="translate(0,-284.26699)" /><g
     id="g18"
     transform="translate(0,-284.26699)" /><g
     id="g20"
     transform="translate(0,-284.26699)" /><g
     id="g22"
     transform="translate(0,-284.26699)" /><g
     id="g24"
     transform="translate(0,-284.26699)" /><g
     id="g26"
     transform="translate(0,-284.26699)" /><g
     id="g28"
     transform="translate(0,-284.26699)" /><g
     id="g30"
     transform="translate(0,-284.26699)" /><g
     id="g32"
     transform="translate(0,-284.26699)" /><g
     id="g34"
     transform="translate(0,-284.26699)" /><g
     id="g36"
     transform="translate(0,-284.26699)" /><g
     id="g38"
     transform="translate(0,-284.26699)" /></svg>