<?xml version="1.0" encoding="UTF-8" standalone="no"?>
<svg
   xmlns:dc="http://purl.org/dc/elements/1.1/"
   xmlns:cc="http://creativecommons.org/ns#"
   xmlns:rdf="http://www.w3.org/1999/02/22-rdf-syntax-ns#"
   xmlns:svg="http://www.w3.org/2000/svg"
   xmlns="http://www.w3.org/2000/svg"
   xmlns:sodipodi="http://sodipodi.sourceforge.net/DTD/sodipodi-0.dtd"
   xmlns:inkscape="http://www.inkscape.org/namespaces/inkscape"
   xml:space="preserve"
   width="11.233"
   viewBox="0 0 11.233 15"
   version="1.1"
   id="Layer_1"
   height="15"
   sodipodi:docname="pdf.svg"
   inkscape:version="0.92.2 (5c3e80d, 2017-08-06)"><sodipodi:namedview
     pagecolor="#ffffff"
     bordercolor="#666666"
     borderopacity="1"
     objecttolerance="10"
     gridtolerance="10"
     guidetolerance="10"
     inkscape:pageopacity="0"
     inkscape:pageshadow="2"
     inkscape:window-width="1366"
     inkscape:window-height="709"
     id="namedview18"
     showgrid="false"
     inkscape:zoom="5.2444444"
     inkscape:cx="53.758375"
     inkscape:cy="22.5"
     inkscape:window-x="0"
     inkscape:window-y="0"
     inkscape:window-maximized="1"
     inkscape:current-layer="Layer_1" /><metadata
     id="metadata32"><rdf:RDF><cc:Work
         rdf:about=""><dc:format>image/svg+xml</dc:format><dc:type
           rdf:resource="http://purl.org/dc/dcmitype/StillImage" /><dc:title></dc:title></cc:Work></rdf:RDF></metadata><defs
     id="defs30" /><g
     transform="matrix(0.34849883,0,0,0.34849883,-3.8871167e-7,-29.607849)"
     id="g46"><g
       id="g4"
       transform="matrix(0.51711121,0,0,0.51711121,-17.7969,72.360902)"><path
         d="M 90.249,107.596 H 40.916 c -3.584,0 -6.5,-2.916 -6.5,-6.5 V 30.861 c 0,-3.584 2.916,-6.5 6.5,-6.5 h 28.726 c 3.152,0 7.367,1.746 9.596,3.975 l 13.537,13.537 c 2.229,2.229 3.975,6.444 3.975,9.596 v 49.627 c -0.001,3.584 -2.917,6.5 -6.501,6.5 z M 40.916,27.361 c -1.93,0 -3.5,1.57 -3.5,3.5 v 70.235 c 0,1.93 1.57,3.5 3.5,3.5 h 49.333 c 1.93,0 3.5,-1.57 3.5,-3.5 V 51.469 c 0,-2.333 -1.446,-5.826 -3.096,-7.475 L 77.116,30.457 c -1.649,-1.649 -5.142,-3.096 -7.475,-3.096 z"
         style="fill:#313335"
         id="path2"
         inkscape:connector-curvature="0" /></g><g
       id="g8"
       transform="matrix(0.51711121,0,0,0.51711121,-17.7969,72.360902)"><path
         d="M 90.249,47.969 H 79.642 c -3.584,0 -6.5,-2.916 -6.5,-6.5 V 30.861 c 0,-3.013 1.617,-4.082 3.003,-4.082 1.02,0 2.06,0.524 3.093,1.557 l 13.537,13.537 c 1.886,1.886 1.657,3.398 1.354,4.132 -0.306,0.733 -1.213,1.964 -3.88,1.964 z M 76.284,29.827 c -0.062,0.16 -0.143,0.476 -0.143,1.034 v 10.608 c 0,1.93 1.57,3.5 3.5,3.5 h 10.607 c 0.558,0 0.874,-0.081 1.034,-0.143 -0.069,-0.157 -0.235,-0.438 -0.63,-0.832 L 77.116,30.457 c -0.394,-0.394 -0.675,-0.561 -0.832,-0.63 z"
         style="fill:#313335"
         id="path6"
         inkscape:connector-curvature="0" /></g><g
       id="g12"
       transform="matrix(0.51711121,0,0,0.51711121,-17.7969,72.360902)" /><g
       id="g20"
       transform="matrix(0.51711121,0,0,0.51711121,-17.7969,72.360902)"><path
         d="M 53.815,92.034 H 51.24 v 3.929 c 0,0.562 -0.132,0.988 -0.397,1.278 -0.265,0.29 -0.6,0.436 -1.003,0.436 -0.423,0 -0.764,-0.144 -1.022,-0.431 -0.259,-0.288 -0.389,-0.708 -0.389,-1.264 V 85.284 c 0,-0.619 0.143,-1.061 0.426,-1.326 0.284,-0.265 0.735,-0.397 1.354,-0.397 h 3.606 c 1.066,0 1.888,0.082 2.462,0.246 0.567,0.158 1.059,0.42 1.472,0.786 0.414,0.366 0.728,0.814 0.942,1.344 0.215,0.53 0.322,1.127 0.322,1.79 0,1.414 -0.436,2.485 -1.307,3.214 -0.87,0.728 -2.167,1.093 -3.891,1.093 z M 53.134,85.672 H 51.24 v 4.241 h 1.894 c 0.663,0 1.217,-0.069 1.662,-0.208 0.444,-0.139 0.784,-0.366 1.018,-0.682 0.233,-0.315 0.35,-0.729 0.35,-1.24 0,-0.612 -0.18,-1.111 -0.539,-1.496 -0.405,-0.41 -1.235,-0.615 -2.491,-0.615 z"
         style="fill:#313335"
         id="path14"
         inkscape:connector-curvature="0" /><path
         d="m 63.104,83.561 h 3.664 c 0.952,0 1.771,0.088 2.452,0.265 0.681,0.177 1.3,0.508 1.855,0.994 1.445,1.237 2.168,3.118 2.168,5.642 0,0.833 -0.073,1.594 -0.218,2.282 -0.146,0.688 -0.369,1.308 -0.673,1.86 -0.303,0.552 -0.69,1.046 -1.164,1.481 -0.372,0.335 -0.779,0.603 -1.222,0.805 -0.441,0.202 -0.916,0.344 -1.425,0.426 -0.508,0.082 -1.08,0.123 -1.718,0.123 H 63.16 c -0.511,0 -0.896,-0.077 -1.155,-0.232 -0.259,-0.155 -0.428,-0.373 -0.506,-0.653 -0.079,-0.281 -0.118,-0.645 -0.118,-1.093 V 85.284 c 0,-0.606 0.135,-1.045 0.406,-1.316 0.272,-0.272 0.71,-0.407 1.317,-0.407 z m 1.088,2.224 v 9.42 h 2.13 c 0.467,0 0.833,-0.013 1.099,-0.038 0.265,-0.025 0.539,-0.088 0.823,-0.189 0.284,-0.101 0.53,-0.243 0.738,-0.426 0.94,-0.795 1.411,-2.165 1.411,-4.108 0,-1.37 -0.207,-2.396 -0.62,-3.077 -0.414,-0.682 -0.924,-1.115 -1.529,-1.302 -0.605,-0.186 -1.338,-0.279 -2.196,-0.279 h -1.856 z"
         style="fill:#313335"
         id="path16"
         inkscape:connector-curvature="0" /><path
         d="m 84.007,85.729 h -5.538 v 3.55 h 4.63 c 0.429,0 0.749,0.096 0.961,0.289 0.211,0.193 0.317,0.45 0.317,0.771 0,0.322 -0.107,0.578 -0.322,0.767 -0.215,0.189 -0.533,0.284 -0.956,0.284 h -4.63 v 4.573 c 0,0.581 -0.131,1.012 -0.393,1.292 -0.262,0.28 -0.599,0.421 -1.009,0.421 -0.416,0 -0.756,-0.142 -1.018,-0.426 -0.262,-0.284 -0.393,-0.713 -0.393,-1.288 V 85.284 c 0,-0.404 0.06,-0.734 0.18,-0.99 0.12,-0.255 0.308,-0.441 0.563,-0.558 0.256,-0.117 0.582,-0.175 0.979,-0.175 h 6.627 c 0.448,0 0.781,0.099 0.999,0.298 0.218,0.199 0.327,0.459 0.327,0.781 0,0.328 -0.109,0.592 -0.327,0.791 -0.218,0.199 -0.549,0.298 -0.997,0.298 z"
         style="fill:#313335"
         id="path18"
         inkscape:connector-curvature="0" /></g><g
       id="g24"
       transform="matrix(0.51711121,0,0,0.51711121,-17.7969,72.360902)"><path
         d="m 46.426,78.998 c -1.465,0 -2.644,-0.746 -3.152,-1.996 -0.847,-2.078 0.374,-4.936 3.35,-7.842 2.33,-2.276 5.584,-4.149 9.677,-5.573 2.177,-4.04 4.18,-8.366 5.585,-12.064 -3.111,-4.839 -3.685,-10.813 -2.597,-14.151 0.704,-2.159 1.923,-2.971 2.82,-3.272 1.252,-0.421 2.53,-0.106 3.421,0.852 1.343,1.444 1.835,4.352 1.506,8.89 -0.131,1.809 -0.732,4.238 -1.79,7.231 0.046,0.058 0.093,0.115 0.14,0.172 0.706,0.863 1.459,1.812 2.248,2.807 1.684,2.123 3.576,4.508 5.5,6.646 0.569,-0.018 1.117,-0.026 1.646,-0.026 6.798,0 11.363,1.422 12.854,4.004 0.636,1.101 0.649,2.34 0.037,3.4 -0.826,1.431 -2.613,2.285 -4.781,2.285 h -0.001 c -0.525,0 -1.068,-0.051 -1.613,-0.152 -2.732,-0.504 -5.731,-2.56 -9.404,-6.455 -0.939,0.051 -1.922,0.125 -2.93,0.223 -2.165,0.208 -6.343,0.753 -10.573,2.086 -1.82,3.287 -5.737,9.926 -8.658,11.835 -1.105,0.72 -2.239,1.1 -3.285,1.1 z m 7.462,-11.184 c -2.095,1.012 -3.824,2.18 -5.169,3.493 -2.643,2.582 -2.815,4.2 -2.667,4.563 0.043,0.105 0.228,0.127 0.374,0.127 0.448,0 1.047,-0.223 1.642,-0.611 1.306,-0.853 3.462,-3.684 5.82,-7.572 z m 22.165,-4.123 c 2.264,2.099 4.164,3.272 5.766,3.568 0.366,0.067 0.726,0.102 1.068,0.102 0.001,0 0.001,0 0.001,0 1.188,0 1.965,-0.407 2.184,-0.785 0.04,-0.071 0.097,-0.167 -0.038,-0.4 -0.504,-0.871 -2.96,-2.306 -8.981,-2.485 z M 64.009,54.316 c -1.047,2.574 -2.322,5.356 -3.708,8.093 3.437,-0.851 6.553,-1.245 8.352,-1.418 0.234,-0.022 0.467,-0.044 0.698,-0.064 -1.431,-1.686 -2.807,-3.42 -4.068,-5.01 -0.436,-0.55 -0.862,-1.086 -1.274,-1.601 z m -0.8,-17.4 c -0.022,0 -0.071,0.004 -0.146,0.029 -0.338,0.113 -0.683,0.621 -0.923,1.359 -0.72,2.208 -0.434,5.923 1.065,9.346 0.477,-1.622 0.762,-2.985 0.837,-4.023 0.366,-5.049 -0.451,-6.352 -0.711,-6.63 -0.073,-0.081 -0.1,-0.081 -0.122,-0.081 z"
         style="fill:#ee3e36"
         id="path22"
         inkscape:connector-curvature="0" /></g></g><rect
     y="-112.5"
     x="0.5"
     width="128"
     style="fill:none"
     id="_x3C_Slice_x3E__11_"
     height="128" /></svg>