<?xml version="1.0" encoding="UTF-8" standalone="no"?>
<!-- Created with Inkscape (http://www.inkscape.org/) -->

<svg
   xmlns:dc="http://purl.org/dc/elements/1.1/"
   xmlns:cc="http://creativecommons.org/ns#"
   xmlns:rdf="http://www.w3.org/1999/02/22-rdf-syntax-ns#"
   xmlns:svg="http://www.w3.org/2000/svg"
   xmlns="http://www.w3.org/2000/svg"
   version="1.0"
   width="80"
   height="15"
   id="svg2279">
  <defs
     id="defs2281">
    <clipPath
       id="clipPath3442">
      <rect
         width="20.614058"
         height="12.483703"
         x="171.99832"
         y="239.1203"
         id="rect3444"
         style="fill:#000000;fill-opacity:1;stroke:none" />
    </clipPath>
  </defs>
  <metadata
     id="metadata2284">
    <rdf:RDF>
      <cc:Work
         rdf:about="">
        <dc:format>image/svg+xml</dc:format>
        <dc:type
           rdf:resource="http://purl.org/dc/dcmitype/StillImage" />
        <dc:title></dc:title>
        <dc:description>alto-texto: 5,810</dc:description>
      </cc:Work>
    </rdf:RDF>
  </metadata>
  <g
     id="layer1">
    <g
       transform="matrix(0.9875019,0,0,0.9333518,-323.90064,-356.81188)"
       id="BY-SA">
      <g
         transform="translate(158,145)"
         id="g3747">
        <rect
           width="80"
           height="15"
           x="170.5"
           y="237.86218"
           id="rect3749"
           style="fill:#ffffff;fill-opacity:1;stroke:#637bbb;stroke-width:1.04161763;stroke-miterlimit:4;stroke-opacity:1;stroke-dasharray:none" />
        <rect
           width="52.53249"
           height="11.898083"
           x="196.46751"
           y="239.4641"
           id="rect3751"
           style="fill:#637bbb;fill-opacity:1;stroke:none" />
        <g
           transform="matrix(0.9612533,0,0,0.9612533,6.8341566,9.5069994)"
           clip-path="url(#clipPath3442)"
           id="g3755" />
      </g>
    </g>
    <g
       transform="matrix(0.11550012,0,0,0.11550012,1.3968064,-0.61325879)"
       id="g4016">
      <path
         d="M 52.352,24.412 69.307,82.055 86.26,24.412 h 45.964 v 5.73 l -17.307,29.816 c 6.08,1.949 10.678,5.498 13.795,10.641 3.119,5.146 4.68,11.184 4.68,18.121 0,8.578 -2.283,15.787 -6.844,21.631 -4.561,5.844 -10.465,8.768 -17.713,8.768 -5.458,0 -10.211,-1.732 -14.262,-5.201 -4.054,-3.469 -7.054,-8.164 -9.002,-14.09 l 9.585,-3.975 c 1.404,3.586 3.256,6.412 5.556,8.475 2.299,2.066 5.008,3.1 8.125,3.1 3.271,0 6.041,-1.832 8.301,-5.494 2.262,-3.664 3.393,-8.066 3.393,-13.215 0,-5.691 -1.209,-10.096 -3.623,-13.213 -2.811,-3.662 -7.215,-5.496 -13.216,-5.496 H 99.018 V 64.399 L 115.385,36.102 H 95.63 l -1.124,1.914 -24.031,81.088 H 69.306 L 51.766,60.413 34.23,119.104 H 33.062 L 5.006,24.408 H 17.282 L 34.235,82.051 45.695,43.236 40.084,24.41 h 12.273 v -0.004 z"
         id="path4002"
         style="fill:#005a9c" />
      <path
         d="m 196.02,24.412 c -2.41,0 -4.574,0.869 -6.215,2.535 -1.74,1.768 -2.709,4.051 -2.709,6.412 0,2.361 0.922,4.549 2.611,6.266 1.717,1.74 3.928,2.686 6.314,2.686 2.334,0 4.6,-0.945 6.361,-2.658 1.689,-1.641 2.611,-3.828 2.611,-6.289 0,-2.387 -0.945,-4.623 -2.584,-6.289 -1.7,-1.745 -3.94,-2.663 -6.38,-2.663 z m 7.78,9.024 c 0,2.064 -0.799,3.979 -2.26,5.393 -1.543,1.494 -3.457,2.289 -5.57,2.289 -1.986,0 -3.949,-0.818 -5.418,-2.311 -1.465,-1.494 -2.287,-3.406 -2.287,-5.443 0,-2.039 0.846,-4.027 2.361,-5.566 1.416,-1.443 3.328,-2.211 5.416,-2.211 2.139,0 4.051,0.799 5.543,2.311 1.45,1.438 2.22,3.373 2.22,5.538 z m -7.53,-5.321 h -3.826 v 10.143 h 1.914 v -4.324 h 1.891 l 2.063,4.324 h 2.137 l -2.264,-4.621 c 1.465,-0.301 2.313,-1.293 2.313,-2.734 0.01,-1.84 -1.39,-2.788 -4.22,-2.788 z m -0.35,1.244 c 1.789,0 2.609,0.498 2.609,1.74 0,1.191 -0.82,1.617 -2.563,1.617 h -1.617 v -3.357 h 1.57 z"
         id="path4004" />
      <path
         d="m 180.97,23.881 1.988,12.09 -7.039,13.469 c 0,0 -2.701,-5.715 -7.191,-8.875 -3.781,-2.664 -6.246,-3.244 -10.1,-2.449 -4.949,1.021 -10.561,6.938 -13.01,14.234 -2.93,8.727 -2.959,12.953 -3.063,16.832 -0.164,6.223 0.816,9.896 0.816,9.896 0,0 -4.275,-7.906 -4.234,-19.486 0.027,-8.268 1.328,-15.764 5.152,-23.16 3.365,-6.504 8.367,-10.408 12.807,-10.867 4.59,-0.473 8.215,1.738 11.02,4.131 2.941,2.516 5.916,8.01 5.916,8.01 l 6.92,-13.825 z"
         id="path4006" />
      <path
         d="m 181.84,92.289 c 0,0 -3.111,5.563 -5.049,7.705 -1.939,2.145 -5.408,5.918 -9.691,7.807 -4.283,1.887 -6.529,2.24 -10.764,1.836 -4.229,-0.406 -8.16,-2.855 -9.537,-3.877 -1.377,-1.022 -4.898,-4.029 -6.889,-6.836 -1.992,-2.807 -5.102,-8.416 -5.102,-8.416 0,0 1.732,5.623 2.82,8.01 0.623,1.375 2.541,5.576 5.266,9.232 2.541,3.41 7.475,9.283 14.973,10.609 7.498,1.328 12.65,-2.041 13.926,-2.855 1.273,-0.814 3.961,-3.066 5.664,-4.889 1.775,-1.896 3.457,-4.32 4.385,-5.773 0.682,-1.063 1.789,-3.215 1.789,-3.215 l -1.79,-9.331 z"
         id="path4008" />
    </g>
    <g
       id="text4041"
       style="font-size:7.68165255px;font-style:normal;font-variant:normal;font-weight:normal;font-stretch:normal;line-height:125%;letter-spacing:0px;word-spacing:0px;fill:#ffffff;fill-opacity:1;stroke:none;font-family:UnifrakturMaguntia;-inkscape-font-specification:UnifrakturMaguntia">
      <path
         d="m 27.999999,4.7332715 1.444061,0 0,2.1342091 2.130458,0 0,-2.1342091 1.444061,0 0,5.5999545 -1.444061,0 0,-2.3742606 -2.130458,0 0,2.3742606 -1.444061,0 0,-5.5999545"
         id="path4165"
         style="font-weight:bold;fill:#ffffff;font-family:Sans;-inkscape-font-specification:Sans Bold" />
      <path
         d="m 33.76874,4.7332715 5.161111,0 0,1.0914848 -1.85665,0 0,4.5084697 -1.444061,0 0,-4.5084697 -1.8604,0 0,-1.0914848"
         id="path4167"
         style="font-weight:bold;fill:#ffffff;font-family:Sans;-inkscape-font-specification:Sans Bold" />
      <path
         d="m 39.67251,4.7332715 1.837896,0 1.275274,2.9968947 1.282776,-2.9968947 1.834145,0 0,5.5999545 -1.365294,0 0,-4.0958809 -1.290278,3.0193995 -0.915197,0 -1.290277,-3.0193995 0,4.0958809 -1.369045,0 0,-5.5999545"
         id="path4169"
         style="font-weight:bold;fill:#ffffff;font-family:Sans;-inkscape-font-specification:Sans Bold" />
      <path
         d="m 47.324157,4.7332715 1.444061,0 0,4.5084699 2.535545,0 0,1.0914846 -3.979606,0 0,-5.5999545"
         id="path4171"
         style="font-weight:bold;fill:#ffffff;font-family:Sans;-inkscape-font-specification:Sans Bold" />
      <path
         d="m 54.994557,4.7332715 3.589522,0 0,1.0614783 -2.438025,0 0,0.8664364 c 0.110022,-0.030003 0.220046,-0.052508 0.330071,-0.067515 0.112522,-0.0175 0.228797,-0.026252 0.348826,-0.026256 0.682643,3.7e-6 1.214007,0.1712904 1.594092,0.5138605 0.380078,0.3400761 0.570118,0.8151778 0.570123,1.4253066 -5e-6,0.6051314 -0.207549,1.0789829 -0.622634,1.4215559 -0.412592,0.3425738 -0.986465,0.5138598 -1.72162,0.5138608 -0.317571,-10e-7 -0.632638,-0.03126 -0.945204,-0.09377 -0.310067,-0.06001 -0.618884,-0.152532 -0.926449,-0.277559 l 0,-1.1364947 c 0.305065,0.1750389 0.593877,0.306317 0.866437,0.3938348 0.275057,0.08752 0.533862,0.1312791 0.776417,0.1312782 0.350072,9e-7 0.625131,-0.085017 0.825177,-0.2550549 0.20254,-0.1725358 0.303812,-0.4050856 0.303815,-0.6976501 -3e-6,-0.2950613 -0.101275,-0.5276111 -0.303815,-0.69765 -0.200046,-0.1700339 -0.475105,-0.2550521 -0.825177,-0.2550549 -0.207547,2.8e-6 -0.428845,0.027509 -0.663893,0.082518 -0.235052,0.052514 -0.487606,0.1350316 -0.757663,0.2475533 l 0,-3.1506778"
         id="path4173"
         style="font-weight:bold;fill:#ffffff;font-family:Sans;-inkscape-font-specification:Sans Bold" />
      <path
         d="m 60.305699,8.8816639 1.35029,0 0,1.4515621 -1.35029,0 0,-1.4515621"
         id="path4175"
         style="font-weight:bold;fill:#ffffff;font-family:Sans;-inkscape-font-specification:Sans Bold" />
      <path
         d="M 65.980669,7.5276226 C 65.980665,6.8274755 65.914401,6.33487 65.781876,6.0498047 65.651845,5.7622474 65.431798,5.6184666 65.121734,5.6184619 c -0.310069,4.7e-6 -0.531366,0.1437855 -0.663893,0.4313428 -0.13253,0.2850653 -0.198794,0.7776708 -0.198793,1.4778179 -1e-6,0.7076544 0.06626,1.2065112 0.198793,1.496572 0.132527,0.2900634 0.353824,0.4350945 0.663893,0.4350936 0.307563,9e-7 0.52761,-0.1450302 0.660142,-0.4350936 0.132525,-0.2900608 0.198789,-0.7889176 0.198793,-1.496572 m 1.44406,0.011253 C 67.424724,8.466577 67.224682,9.1829804 66.8246,9.6880879 66.42451,10.190697 65.856889,10.442 65.121734,10.442 c -0.737661,0 -1.306532,-0.251303 -1.706617,-0.7539121 -0.400087,-0.5051075 -0.60013,-1.2215109 -0.600129,-2.1492123 -10e-7,-0.9301964 0.200042,-1.6465998 0.600129,-2.1492124 0.400085,-0.5051032 0.968956,-0.7576573 1.706617,-0.757663 0.735155,5.7e-6 1.302776,0.2525598 1.702866,0.757663 0.400082,0.5026126 0.600124,1.219016 0.600129,2.1492124"
         id="path4177"
         style="font-weight:bold;fill:#ffffff;font-family:Sans;-inkscape-font-specification:Sans Bold" />
    </g>
  </g>
</svg>
