<?xml version="1.0" encoding="UTF-8" standalone="no"?>
<!-- Created with Inkscape (http://www.inkscape.org/) -->

<svg
   xmlns:dc="http://purl.org/dc/elements/1.1/"
   xmlns:cc="http://creativecommons.org/ns#"
   xmlns:rdf="http://www.w3.org/1999/02/22-rdf-syntax-ns#"
   xmlns:svg="http://www.w3.org/2000/svg"
   xmlns="http://www.w3.org/2000/svg"
   version="1.0"
   width="80"
   height="15"
   id="svg2279">
  <defs
     id="defs2281">
    <clipPath
       id="clipPath3442">
      <rect
         width="20.614058"
         height="12.483703"
         x="171.99832"
         y="239.1203"
         id="rect3444"
         style="fill:#000000;fill-opacity:1;stroke:none" />
    </clipPath>
  </defs>
  <metadata
     id="metadata2284">
    <rdf:RDF>
      <cc:Work
         rdf:about="">
        <dc:format>image/svg+xml</dc:format>
        <dc:type
           rdf:resource="http://purl.org/dc/dcmitype/StillImage" />
        <dc:title></dc:title>
        <dc:description>alto-texto: 5,810</dc:description>
      </cc:Work>
    </rdf:RDF>
  </metadata>
  <g
     id="layer1">
    <g
       transform="matrix(0.9875019,0,0,0.9333518,-323.90064,-356.81188)"
       id="BY-SA">
      <g
         transform="translate(158,145)"
         id="g3747">
        <rect
           width="80"
           height="15"
           x="170.5"
           y="237.86218"
           id="rect3749"
           style="fill:#ffffff;fill-opacity:1;stroke:#637bbb;stroke-width:1.04161763;stroke-miterlimit:4;stroke-opacity:1;stroke-dasharray:none" />
        <rect
           width="52.53249"
           height="11.898083"
           x="196.46751"
           y="239.4641"
           id="rect3751"
           style="fill:#637bbb;fill-opacity:1;stroke:none" />
        <g
           transform="matrix(0.9612533,0,0,0.9612533,6.8341566,9.5069994)"
           clip-path="url(#clipPath3442)"
           id="g3755" />
      </g>
    </g>
    <g
       transform="matrix(0.11550012,0,0,0.11550012,1.3968064,-0.61325879)"
       id="g4016">
      <path
         d="M 52.352,24.412 69.307,82.055 86.26,24.412 h 45.964 v 5.73 l -17.307,29.816 c 6.08,1.949 10.678,5.498 13.795,10.641 3.119,5.146 4.68,11.184 4.68,18.121 0,8.578 -2.283,15.787 -6.844,21.631 -4.561,5.844 -10.465,8.768 -17.713,8.768 -5.458,0 -10.211,-1.732 -14.262,-5.201 -4.054,-3.469 -7.054,-8.164 -9.002,-14.09 l 9.585,-3.975 c 1.404,3.586 3.256,6.412 5.556,8.475 2.299,2.066 5.008,3.1 8.125,3.1 3.271,0 6.041,-1.832 8.301,-5.494 2.262,-3.664 3.393,-8.066 3.393,-13.215 0,-5.691 -1.209,-10.096 -3.623,-13.213 -2.811,-3.662 -7.215,-5.496 -13.216,-5.496 H 99.018 V 64.399 L 115.385,36.102 H 95.63 l -1.124,1.914 -24.031,81.088 H 69.306 L 51.766,60.413 34.23,119.104 H 33.062 L 5.006,24.408 H 17.282 L 34.235,82.051 45.695,43.236 40.084,24.41 h 12.273 v -0.004 z"
         id="path4002"
         style="fill:#005a9c" />
      <path
         d="m 196.02,24.412 c -2.41,0 -4.574,0.869 -6.215,2.535 -1.74,1.768 -2.709,4.051 -2.709,6.412 0,2.361 0.922,4.549 2.611,6.266 1.717,1.74 3.928,2.686 6.314,2.686 2.334,0 4.6,-0.945 6.361,-2.658 1.689,-1.641 2.611,-3.828 2.611,-6.289 0,-2.387 -0.945,-4.623 -2.584,-6.289 -1.7,-1.745 -3.94,-2.663 -6.38,-2.663 z m 7.78,9.024 c 0,2.064 -0.799,3.979 -2.26,5.393 -1.543,1.494 -3.457,2.289 -5.57,2.289 -1.986,0 -3.949,-0.818 -5.418,-2.311 -1.465,-1.494 -2.287,-3.406 -2.287,-5.443 0,-2.039 0.846,-4.027 2.361,-5.566 1.416,-1.443 3.328,-2.211 5.416,-2.211 2.139,0 4.051,0.799 5.543,2.311 1.45,1.438 2.22,3.373 2.22,5.538 z m -7.53,-5.321 h -3.826 v 10.143 h 1.914 v -4.324 h 1.891 l 2.063,4.324 h 2.137 l -2.264,-4.621 c 1.465,-0.301 2.313,-1.293 2.313,-2.734 0.01,-1.84 -1.39,-2.788 -4.22,-2.788 z m -0.35,1.244 c 1.789,0 2.609,0.498 2.609,1.74 0,1.191 -0.82,1.617 -2.563,1.617 h -1.617 v -3.357 h 1.57 z"
         id="path4004" />
      <path
         d="m 180.97,23.881 1.988,12.09 -7.039,13.469 c 0,0 -2.701,-5.715 -7.191,-8.875 -3.781,-2.664 -6.246,-3.244 -10.1,-2.449 -4.949,1.021 -10.561,6.938 -13.01,14.234 -2.93,8.727 -2.959,12.953 -3.063,16.832 -0.164,6.223 0.816,9.896 0.816,9.896 0,0 -4.275,-7.906 -4.234,-19.486 0.027,-8.268 1.328,-15.764 5.152,-23.16 3.365,-6.504 8.367,-10.408 12.807,-10.867 4.59,-0.473 8.215,1.738 11.02,4.131 2.941,2.516 5.916,8.01 5.916,8.01 l 6.92,-13.825 z"
         id="path4006" />
      <path
         d="m 181.84,92.289 c 0,0 -3.111,5.563 -5.049,7.705 -1.939,2.145 -5.408,5.918 -9.691,7.807 -4.283,1.887 -6.529,2.24 -10.764,1.836 -4.229,-0.406 -8.16,-2.855 -9.537,-3.877 -1.377,-1.022 -4.898,-4.029 -6.889,-6.836 -1.992,-2.807 -5.102,-8.416 -5.102,-8.416 0,0 1.732,5.623 2.82,8.01 0.623,1.375 2.541,5.576 5.266,9.232 2.541,3.41 7.475,9.283 14.973,10.609 7.498,1.328 12.65,-2.041 13.926,-2.855 1.273,-0.814 3.961,-3.066 5.664,-4.889 1.775,-1.896 3.457,-4.32 4.385,-5.773 0.682,-1.063 1.789,-3.215 1.789,-3.215 l -1.79,-9.331 z"
         id="path4008" />
    </g>
    <g
       id="text4041"
       style="font-size:7.68165255px;font-style:normal;font-variant:normal;font-weight:normal;font-stretch:normal;line-height:125%;letter-spacing:0px;word-spacing:0px;fill:#ffffff;fill-opacity:1;stroke:none;font-family:UnifrakturMaguntia;-inkscape-font-specification:UnifrakturMaguntia">
      <path
         d="m 32.440955,10.02566 c -0.265062,0.13753 -0.541372,0.241302 -0.828929,0.311317 -0.287566,0.07002 -0.58763,0.105022 -0.900193,0.105023 -0.932704,-1e-6 -1.671612,-0.260056 -2.216727,-0.7801682 C 27.949988,9.1392205 27.677429,8.431569 27.67743,7.5388751 c -1e-6,-0.8951889 0.272558,-1.6028405 0.817676,-2.1229568 0.545115,-0.5226069 1.284023,-0.7839129 2.216727,-0.7839186 0.312563,5.7e-6 0.612627,0.035013 0.900193,0.1050226 0.287557,0.070021 0.563867,0.1737928 0.828929,0.311317 l 0,1.1589993 C 32.173392,6.0248036 31.909586,5.891025 31.649534,5.8060023 31.389474,5.7209886 31.115666,5.6784795 30.828108,5.6784748 c -0.515114,4.7e-6 -0.920201,0.16504 -1.215262,0.4951065 -0.295065,0.3300749 -0.442597,0.7851723 -0.442595,1.3652938 -2e-6,0.5776264 0.14753,1.0314736 0.442595,1.3615429 0.295061,0.3300721 0.700148,0.4951074 1.215262,0.4951065 0.287558,9e-7 0.561366,-0.042508 0.821426,-0.1275275 0.260052,-0.085017 0.523858,-0.2187957 0.791421,-0.4013363 l 0,1.1589993"
         id="path4219"
         style="font-weight:bold;fill:#ffffff;font-family:Sans;-inkscape-font-specification:Sans Bold" />
      <path
         d="m 37.688334,4.9095594 0,1.185255 C 37.380763,5.9572892 37.080699,5.853517 36.78814,5.7834974 36.495573,5.713487 36.219264,5.6784795 35.959212,5.6784748 c -0.345077,4.7e-6 -0.600132,0.047515 -0.765165,0.1425307 -0.165038,0.095025 -0.247555,0.2425564 -0.247553,0.4425952 -2e-6,0.1500362 0.05501,0.2675614 0.165035,0.3525759 0.112522,0.082521 0.315066,0.1537866 0.607631,0.213796 l 0.615132,0.1237766 c 0.62263,0.1250301 1.065225,0.3150708 1.327786,0.5701226 0.262551,0.2550575 0.39383,0.6176351 0.393835,1.087734 -5e-6,0.617634 -0.183795,1.0777325 -0.551369,1.380297 -0.365083,0.3000642 -0.923952,0.4500962 -1.676611,0.4500972 -0.355078,-1e-6 -0.711405,-0.03376 -1.06898,-0.101272 -0.357578,-0.06752 -0.715155,-0.167536 -1.07273,-0.300065 l 0,-1.219012 c 0.357575,0.1900422 0.702649,0.333823 1.035222,0.4313428 0.33507,0.095021 0.657639,0.1425316 0.967708,0.1425307 0.315065,9e-7 0.556367,-0.05251 0.723906,-0.1575339 0.167533,-0.1050214 0.251301,-0.2550535 0.251304,-0.4500968 -3e-6,-0.175036 -0.05752,-0.3100649 -0.172537,-0.4050872 C 36.379299,8.2877882 36.153,8.20277 35.81293,8.1277517 L 35.25406,8.0039751 C 34.693938,7.8839517 34.28385,7.6926608 34.023795,7.4301017 33.766239,7.1675483 33.637461,6.8137226 33.637462,6.3686233 33.637461,5.8110079 33.8175,5.382166 34.177578,5.0820965 c 0.360076,-0.300059 0.877687,-0.4500911 1.552834,-0.4500968 0.307564,5.7e-6 0.623881,0.023761 0.948954,0.071265 0.325066,0.045015 0.661388,0.11378 1.008968,0.2062944"
         id="path4221"
         style="font-weight:bold;fill:#ffffff;font-family:Sans;-inkscape-font-specification:Sans Bold" />
      <path
         d="m 42.87945,4.9095594 0,1.185255 C 42.57188,5.9572892 42.271816,5.853517 41.979257,5.7834974 41.68669,5.713487 41.410381,5.6784795 41.150328,5.6784748 c -0.345076,4.7e-6 -0.600131,0.047515 -0.765164,0.1425307 -0.165038,0.095025 -0.247555,0.2425564 -0.247554,0.4425952 -1e-6,0.1500362 0.05501,0.2675614 0.165036,0.3525759 0.112522,0.082521 0.315065,0.1537866 0.607631,0.213796 l 0.615132,0.1237766 c 0.62263,0.1250301 1.065225,0.3150708 1.327786,0.5701226 0.262551,0.2550575 0.393829,0.6176351 0.393834,1.087734 -5e-6,0.617634 -0.183794,1.0777325 -0.551368,1.380297 -0.365083,0.3000642 -0.923952,0.4500962 -1.676611,0.4500972 -0.355079,-1e-6 -0.711405,-0.03376 -1.06898,-0.101272 -0.357578,-0.06752 -0.715155,-0.167536 -1.072731,-0.300065 l 0,-1.219012 c 0.357576,0.1900422 0.70265,0.333823 1.035223,0.4313428 0.33507,0.095021 0.657639,0.1425316 0.967708,0.1425307 0.315065,9e-7 0.556367,-0.05251 0.723906,-0.1575339 0.167533,-0.1050214 0.2513,-0.2550535 0.251304,-0.4500968 -4e-6,-0.175036 -0.05752,-0.3100649 -0.172537,-0.4050872 C 41.570415,8.2877882 41.344117,8.20277 41.004047,8.1277517 L 40.445177,8.0039751 C 39.885055,7.8839517 39.474967,7.6926608 39.214912,7.4301017 38.957356,7.1675483 38.828578,6.8137226 38.828579,6.3686233 c -10e-7,-0.5576154 0.180038,-0.9864573 0.540116,-1.2865268 0.360076,-0.300059 0.877687,-0.4500911 1.552834,-0.4500968 0.307563,5.7e-6 0.623881,0.023761 0.948954,0.071265 0.325066,0.045015 0.661388,0.11378 1.008967,0.2062944"
         id="path4223"
         style="font-weight:bold;fill:#ffffff;font-family:Sans;-inkscape-font-specification:Sans Bold" />
      <path
         d="m 50.062246,7.3138266 c 0.377577,0.097524 0.663889,0.2675604 0.858935,0.5101098 0.197538,0.2400539 0.296309,0.5463695 0.296314,0.9189477 -5e-6,0.5551204 -0.212551,0.9777109 -0.637637,1.2677729 -0.425096,0.287562 -1.045228,0.431342 -1.860401,0.431343 -0.287564,-1e-6 -0.576375,-0.02376 -0.866436,-0.07127 -0.287563,-0.04501 -0.572624,-0.113774 -0.855184,-0.206294 l 0,-1.1139898 c 0.270057,0.1350302 0.537615,0.2375522 0.802673,0.3075662 0.267556,0.067515 0.530112,0.1012727 0.787669,0.1012718 0.38258,9e-7 0.675143,-0.066263 0.877689,-0.1987928 0.205041,-0.1325273 0.307563,-0.322568 0.307566,-0.5701226 -3e-6,-0.255053 -0.105026,-0.4475942 -0.315068,-0.5776243 C 49.250819,7.9802224 48.943253,7.9139582 48.535668,7.9139557 l -0.577625,0 0,-0.9302001 0.607631,0 c 0.362576,3.4e-6 0.632634,-0.056259 0.810174,-0.1687863 0.177536,-0.1150211 0.266305,-0.2888083 0.266308,-0.5213621 -3e-6,-0.215042 -0.08627,-0.3813276 -0.258806,-0.4988574 -0.17254,-0.1175206 -0.416342,-0.1762832 -0.731407,-0.1762879 -0.232552,4.7e-6 -0.467603,0.02626 -0.705152,0.078767 -0.237552,0.052516 -0.473853,0.1300324 -0.708902,0.23255 l 0,-1.0577276 c 0.28506,-0.080012 0.56762,-0.1400245 0.847682,-0.1800387 0.280058,-0.040003 0.555117,-0.060007 0.825177,-0.060013 0.727654,5.7e-6 1.27152,0.1200314 1.631601,0.3600775 0.362574,0.2375562 0.543863,0.596383 0.543867,1.0764816 -4e-6,0.3275744 -0.08627,0.5963819 -0.258805,0.8064234 -0.172542,0.2075479 -0.427596,0.3538293 -0.765165,0.4388444"
         id="path4225"
         style="font-weight:bold;fill:#ffffff;font-family:Sans;-inkscape-font-specification:Sans Bold" />
      <path
         d="m 52.609043,8.8816639 1.350291,0 0,1.4515621 -1.350291,0 0,-1.4515621"
         id="path4227"
         style="font-weight:bold;fill:#ffffff;font-family:Sans;-inkscape-font-specification:Sans Bold" />
      <path
         d="M 58.284014,7.5276226 C 58.28401,6.8274755 58.217746,6.33487 58.085221,6.0498047 57.95519,5.7622474 57.735142,5.6184666 57.425079,5.6184619 c -0.310069,4.7e-6 -0.531367,0.1437855 -0.663893,0.4313428 -0.13253,0.2850653 -0.198795,0.7776708 -0.198793,1.4778179 -2e-6,0.7076544 0.06626,1.2065112 0.198793,1.496572 0.132526,0.2900634 0.353824,0.4350945 0.663893,0.4350936 0.307563,9e-7 0.52761,-0.1450302 0.660142,-0.4350936 0.132525,-0.2900608 0.198789,-0.7889176 0.198793,-1.496572 m 1.44406,0.011253 c -5e-6,0.9277014 -0.200048,1.6441048 -0.600129,2.1492123 C 58.727855,10.190697 58.160233,10.442 57.425079,10.442 c -0.737661,0 -1.306533,-0.251303 -1.706617,-0.7539121 -0.400087,-0.5051075 -0.60013,-1.2215109 -0.60013,-2.1492123 0,-0.9301964 0.200043,-1.6465998 0.60013,-2.1492124 0.400084,-0.5051032 0.968956,-0.7576573 1.706617,-0.757663 0.735154,5.7e-6 1.302776,0.2525598 1.702866,0.757663 0.400081,0.5026126 0.600124,1.219016 0.600129,2.1492124"
         id="path4229"
         style="font-weight:bold;fill:#ffffff;font-family:Sans;-inkscape-font-specification:Sans Bold" />
    </g>
  </g>
</svg>
